<?xml version="1.0" encoding="UTF-8"?>
<svg id="Ebene_1" xmlns="http://www.w3.org/2000/svg" version="1.1" viewBox="0 0 362.01 453.54">
  <!-- Generator: Adobe Illustrator 29.8.7, SVG Export Plug-In . SVG Version: 2.1.1 Build 1)  -->
  <defs>
    <style>
      .st0 {
        fill: #fff;
      }

      .st1 {
        fill: #17223c;
      }
    </style>
  </defs>
  <g id="Ebene_2">
    <path class="st0" d="M361.68,199.36c2.69-98.59-51.77-150.29-105.93-173.56-110.11-67.36-176.14,15.5-212.69,41.6C2.34,88.54,4.09,152.39,6.66,179.22c.73,7.62-.47,15.3-3.57,22.36-13.11,28.3,19.94,38.4,15.47,76.62-2.33,68.85,43.66,106.46,63.37,133.05,15.34,27.42,43.62,42.26,79.81,42.26,54.26,1.7,120.38-50.69,144.62-95.39,4.45-7.51,11.02-13.63,18.89-17.77,46.27-26.84,26.05-65.52,33.27-97.36,5.9-17.98,2.33-30,3.16-43.61h0v-.02Z"/>
    <g>
      <path class="st1" d="M137.07,380.17c.77,2.03,3.17,7.13,8.2,7.73.19.02.34.17.36.36.1.92.37,3.63.07,5.77-.04.3.22.56.52.47.91-.26,2.67-.91,4.2-2.39.23-.22.61-.1.68.21.3,1.31,1.16,4.02,3.29,5.87.14.12.35.13.51.03.65-.42,2.31-1.75,3.63-4.85.11-.28.48-.35.68-.13.5.52,1.58,1.41,3.91,2.7.16.09.36.07.5-.05.52-.49,1.67-2.02,1.68-6.11,0-.18.1-.33.26-.39,1.48-.55,8.7-3.4,10.34-7.4.12-.31-.14-.64-.48-.57-3.67.87-20.91,4.36-37.81-1.74-.33-.12-.65.2-.53.53v-.02h0v-.02Z"/>
      <path class="st1" d="M319.54,261.19c-6.57.09-14.08,11.99-13.8,16.18.29,4.19,5.51,5.99,4.09,11.04-1.43,5.04-8.79,15.68-5.14,18.46,10.5,7.96,30.64-45.4,14.85-45.68h.01-.01Z"/>
      <path class="st1" d="M132.86,220.11c-.29-13.42-7.57-11.56-30.4-14.25-17.26-2.03-28.33,9.22-32.21,17.81-.89,1.98,1.41,3.89,3.2,2.65,4.16-2.89,11.47-6.34,23.38-7.39,21.56-1.89,36.31,14.6,36.02,1.18h.01Z"/>
      <path class="st1" d="M227.81,198.27c-32.1,4.07-42.42,2.02-42.5,18.57s20.32-4.26,50.75-2.65c20.39,1.09,31.33,6.76,36.33,10.39,1.44,1.04,3.35-.37,2.76-2.05-3.73-10.59-20.35-27.68-47.34-24.25h0Z"/>
      <path class="st1" d="M89.93,294.58c10.17-1.14,31.84-3.01,35.05-5.21,15.84-10.89,6.06-49.89-13.79-48.35-17.44.71-21.67,33.67-9.86,46.02-5.14.73-9.56,1.3-11.89,1.49-7.71-.7-8.81-11.55-9.69-22.7-1.92-27.75,19.26-39.3,42.86-24.48,3.11,2.38,6.79-2.63,3.57-4.88-23.52-16.24-54.92-6.38-52.48,29.53.04,7.55,2.49,29.76,16.24,28.58h-.01,0ZM117.69,249.91c9.01-.73,10.63,19.11,1.61,19.83-9.01.73-10.63-19.11-1.61-19.83h0Z"/>
      <path class="st1" d="M195.9,234.59c-3.81,2.39.42,7.99,4.12,5.46,27.9-15.61,52.61-2.33,49.94,28.09-1.19,12.23-2.65,24.1-11.7,24.65-2.74-.28-7.91-1.02-13.94-1.98,14.05-13.23,9.56-49.54-10.89-50.82-23.28-2.27-35.26,40.49-16.89,52.7,3.36,2.23,29.13,5.18,41.05,6.71,16.13,1.7,19.32-22.63,19.48-30.91,3.37-39.37-33.33-51.09-61.16-33.91h-.01ZM217.55,273.65c-10.56-1.06-8.38-22.8,2.18-21.74s8.38,22.8-2.18,21.74Z"/>
      <path class="st1" d="M137.13,298.97c0-9.58,5.04-14.78,8.99-17.4.83-.55.31-1.83-.66-1.62-6.38,1.41-16.26,5.75-16.26,19.21s10.26,18.08,16.81,19.48c.97.21,1.49-1.08.66-1.61-4.14-2.68-9.54-8.08-9.54-18.05h0Z"/>
      <path class="st1" d="M169.65,314.38c4.68-2.41,11.51-1.77,11.51-1.77,0,0-5.4-4.31-12.92-2.47-5.04,1.23-9.5,5.28-8.61,8.09.44,1.41,5.35-1.44,10.01-3.85h.01Z"/>
      <path class="st1" d="M114.11,334.03c2.83-.5,8.47-2.89,9.77-3.46.12-.05.26.05.24.19-.16,1.3-.48,2.18-.66,2.59-.05.12.04.26.18.25,5.54-.34,11.19-3.34,12.45-4.06.11-.06.26.03.26.17-.02,1.5-.38,2.55-.59,3.02-.05.12.06.26.2.24,8.5-1.4,10.04-7.82,10.28-9.49.02-.14-.13-.25-.26-.17-1.76,1.11-6.93,1.81-8.01,1.95-.1.01-.2-.07-.2-.19.07-1.24.77-2.75,1.06-3.34.06-.11-.02-.26-.16-.26-2.97.03-7.75,2.36-8.89,2.93-.12.06-.26-.03-.25-.18.06-1,.79-2.6,1.08-3.21.05-.11-.02-.26-.16-.26-3.86-.03-10.11,3.08-11.53,3.83-.13.07-.28-.05-.25-.2.2-.96.9-2.35,1.18-2.89.06-.1,0-.24-.13-.26-3.71-.41-10.69,3.9-12.22,4.88-.12.08-.28-.02-.27-.17.11-1.19.25-2.31.3-2.77,0-.11-.08-.21-.2-.2-4.51.65-9.57,4.85-10.79,5.93-.11.09-.29.02-.28-.13.02-.92.3-2.18.44-2.77.03-.13-.11-.25-.24-.21-9.32,3.51-8.37,11.27-8.14,12.53.02.1.11.17.22.13,2-.44,3.88-1.71,4.44-2.1.09-.06.22-.03.26.07.36.96.56,3.5.62,4.39,0,.13.17.22.27.13,3-2.25,7.9-7.04,9-8.11.09-.09.27-.04.3.09.36,1.73.22,3.01.12,3.54-.02.12.08.24.22.21,3.91-.99,9.11-4.61,10.36-5.5.11-.08.28,0,.28.16-.02,1.14-.3,2.01-.48,2.43-.05.12.05.26.19.24v.02h-.01Z"/>
      <path class="st1" d="M224.25,327.04s.53.86.54,2.38c0,0-7.26-4.1-11.04-5.05-.26-.07-.51.17-.43.43.17.61.39,1.61.47,2.43.02.28-.26.48-.52.35-1.99-.96-9.04-4.31-12.59-5.17-.28-.07-.52.21-.41.48.13.34.29.83.36,1.45,0,0-8.59-2.89-11.27-3.06-.24-.02-.42.21-.36.44.09.33.22.83.32,1.42.04.26-.2.49-.44.41-1.72-.5-7.09-2.04-9.38-2.38-.22-.03-.4.12-.41.34-.02.53-.05,1.49-.14,2.18-.03.22-.24.35-.44.29-1.45-.4-6.71-1.82-8.97-2.32-.23-.05-.43.11-.43.35,0,.26.04.62.18,1.09.06.22-.07.43-.29.47-1.27.19-5.16.66-7.71-.31-.26-.1-.52.12-.47.39.39,2.02,2.27,8.06,10.89,8.92.23.02.42-.17.4-.39-.03-.35-.07-.87-.02-1.4.02-.25.28-.4.51-.29,1.54.71,6.87,3.03,11.05,3.16.23,0,.39-.21.36-.42-.08-.49-.13-1.31.2-2.17.07-.19.3-.27.49-.18,1.27.65,5.98,2.96,10.5,3.45.26.03.47-.23.38-.47-.17-.49-.38-1.25-.36-2,0-.27.29-.43.53-.31,1.74.87,7.97,3.92,11.71,4.37.22.03.4-.14.39-.37-.02-.38-.03-1,.05-1.72.03-.24.27-.38.5-.29,1.76.74,8.54,3.73,10.58,6.24.16.2.46.16.58-.06.28-.48.65-1.25.71-1.89.03-.25.31-.38.53-.27,1.68.85,6.52,3.49,8.16,6.17.16.27.55.22.64-.08.29-.92.63-2.63.04-4.71-.06-.25.12-.49.37-.46.91.1,2.86.52,4.46,2.2.21.22.57.08.61-.22.31-2.5.37-10.53-10.79-13.4l-.03-.04h0v.02h0-.02Z"/>
      <path class="st1" d="M113.42,371.68c-2.1,0-3.81,1.39-3.81,3.1s1.71,3.1,3.81,3.1,3.81-1.39,3.81-3.1-1.71-3.1-3.81-3.1Z"/>
      <path class="st1" d="M210.47,337.76l-99.05-1.29c-1.51-.02-2.92.98-3.21,2.46-.38,1.95,1.09,3.66,2.98,3.69l3.39.04c1.18,2.8,3.71,7.8,8.31,12.8,6.24,6.79,17.63,14.88,36.46,14.88s31.41-7.6,38.83-13.98c5.78-4.97,9.28-9.94,10.85-12.47l1.21.02c1.51.02,2.92-.98,3.21-2.46.38-1.95-1.09-3.66-2.98-3.69h0ZM159.34,364.19c-10.63,0-19.61-2.76-26.81-8.22l54.27,1.01c-8.06,4.79-17.27,7.21-27.48,7.21h.02ZM194.98,350.98l-68.97-1.28c-2.08-2.53-3.58-4.99-4.59-6.93l80.18,1.04c-1.55,2.05-3.76,4.59-6.63,7.17h0Z"/>
    </g>
    <path class="st1" d="M335.51,244.51c-.25-.23-.34-.58-.25-.9h-.02c18.36-62.82-.65-129.27-26.69-150.73-5.09-4.19-8.88-9.7-11.49-15.76-6.83-15.83-25.78-27.77-53.03-34.43-.27-.06-.49-.24-.6-.49-1.46-3.06-13.21-23.65-65.82-23.66-3.77,0-7.72.1-11.91.33-65.4,3.5-96.42,47.41-98.3,50.16-.06.09-.14.17-.23.23C11.81,107.13,24.52,159.15,25.75,163.68c.06.21.03.43-.06.63-3.39,6.89-4.01,13.34-4.03,16.95,0,.9,1.15,1.27,1.66.54,1.99-2.88,4.38-5.38,6.44-7.27.76-.69,1.9.21,1.42,1.11-5.06,9.27-9.51,23.84-17.52,29.58-.58.41-.49,1.3.18,1.58,4.69,1.98,7.97,2.5,11.09,2.08.55-.07,1.02.36,1.01.92-.09,10.19,4.33,18.61,6.92,22.64.48.74,1.64.42,1.68-.47.06-2.31.63-3.23,1.7-4.05,7.64-5.84,12.53,18.8,8.89,27.85-26.64,66.29,21.81,117.39,35.44,128.32,18.96,13.8,15.86,21.64,23.3,27.92.35.3.89.28,1.22-.05.05-.05.1-.1.16-.16.49-.52,1.32-.33,1.54.34,1.89,6.19,5.87,9.49,7.69,10.73.48.33,1.14.12,1.36-.4.08-.2.17-.39.24-.59.29-.7,1.26-.74,1.63-.08,3.88,6.91,9.24,9.39,11.46,10.16.55.19,1.14-.19,1.19-.77.03-.34.06-.7.09-1.07.05-.73.92-1.1,1.5-.62,6.68,5.53,9.92,6.62,12.37,6.68.56.01,1-.48.94-1.03v-.04c-.1-.8.79-1.31,1.44-.85,11.71,8.42,20.82,4.41,28.47.79.59-.28,1.27.14,1.29.8,0,.36.05.73.09,1.04.07.5.54.85,1.03.78,6.48-.99,12.01-4.38,14.6-6.18.58-.4,1.34-.02,1.42.68.03.32.09.58.17.8.14.44.62.7,1.08.59,6.36-1.55,11.3-5.74,13.41-7.8.44-.43,1.18-.29,1.45.28.1.22.22.43.33.62.24.4.76.57,1.17.36,5.32-2.58,8.72-7.53,10.24-10.18.35-.61,1.21-.6,1.57,0,.04.07.09.14.13.22.3.47.92.57,1.34.22,22.94-18.97,62.74-44.74,70.52-85.91.1-.53.63-.85,1.15-.7,32.85,9.17,67.31-59.71,39.36-86.15h-.01ZM333.23,283.38h-.02c-2.66,17.82-21.27,43.69-34.81,38.61-5.74-2.15-1.4-13.45-4.92-16.16-1.23-.94-4.07-.74-4.84,3.6-9.34,51.78-18.73,57.56-56.47,82.29-.62.41-1.45-.07-1.41-.82.08-1.74-.27-3.06-.65-3.95-.28-.66-1.2-.72-1.59-.11-1.84,2.85-3.6,5.04-4.74,6.37-.49.57-1.41.33-1.57-.39-.27-1.18-.67-2.14-1.06-2.86-.35-.67-1.34-.62-1.64.08-1.93,4.53-3.77,7.19-4.98,8.63-.48.57-1.4.34-1.57-.38-.28-1.18-.89-2.11-1.43-2.75-.43-.52-1.25-.4-1.53.22-1.33,2.99-3.66,7.05-5.4,9.89-.39.64-1.34.56-1.61-.13-.37-.93-.92-1.9-1.4-2.65-.37-.58-1.24-.56-1.56.04-1.42,2.64-4.66,6.98-6.52,9.29-.44.55-1.29.39-1.56-.26-.89-2.23-3.13-4.87-3.53-4.44-1.88,3.25-4.32,5.87-6.4,7.72-1.1.98-2.09,1.76-2.83,2.3-.55.4-1.29.06-1.42-.61-.29-1.57-1.21-3.23-1.89-4.21-.35-.5-1.08-.5-1.46-.02-3.65,4.56-6.77,6.23-8.35,6.82-.54.21-1.11-.17-1.2-.73-.36-2.21-1.77-4.07-2.59-4.99-.33-.37-.91-.4-1.28-.07-1.2,1.1-2.34,2.74-3.08,3.91-.37.6-1.25.56-1.57-.06-.63-1.23-1.67-3.02-3-4.68-.43-.54-1.27-.42-1.55.21-.33.76-.73,1.96-1.16,3.85-.11.51-.64.82-1.14.67-1.24-.37-3.48-1.67-5.64-6.14-.08-.53-4.14,3.08-4.44,5.01.04.95-5.04-5.55-6.77-9.88-.2-.49-.74-.71-1.22-.5-1.15.52-2.7,1.39-3.73,2.29-.49.42-1.24.26-1.47-.35-.95-2.6-3.06-7.83-4.52-9.86-.32-.44-.94-.52-1.34-.16-.44.39-.92,1.01-1.38,1.68s-1.47.46-1.63-.32c-.67-3.04-2.23-7.69-3.88-9.08-.05-.14-1.63.2-2.75,1-.52.37-1.26.1-1.41-.52-.69-3.02-2.2-6.25-4.61-8.59-.34-.33-.9-.33-1.24,0-.48.47-1.14,1.31-1.81,2.79-.23.51-.85.71-1.31.41-32.26-20.24-61.73-78.97-42.38-123.96,5.68-13.2,2.9-25.37-2.02-36.96-.35-.82.58-1.59,1.33-1.12,1.47.91,3.49,1.99,5.97,2.85.66.23,1.34-.36,1.19-1.04-8.24-37.51,46.6-33.15,71.32-42,.85-.3,1.58.68,1.03,1.41-.97,1.26-3.08,2.96-7.67,4.67-.93.34-.71,1.72.27,1.76,7.6.33,24.3-.47,44.96-10.58.91-.44,1.77.69,1.08,1.43-2.01,2.14-5.76,5.32-12.7,9.28-.82.47-.49,1.72.46,1.71,13.66-.24,62.47-2.78,78.14-26.36.55-.83,1.83-.29,1.64.68-.61,3.12-1.83,7.31-4.29,10.91-.53.77.29,1.74,1.13,1.33,4.39-2.1,12.2-6.94,18.08-16.71.56-.92,1.98-.31,1.66.72-1.69,5.47-4.31,12.22-7.92,16.54-.56.66.04,1.66.89,1.47,2.76-.62,7.53-2.34,13.37-7.09.43-.35,1.09-.25,1.37.24,1.74,2.96,7.36,12.26,11.88,16.69,22.55,22.09,5.82,41.04,6.34,78.25.07,5.06,11.09,7.81,14.11,1,12.62-28.47,40.61-33.57,33.68,12.88h-.04Z"/>
  </g>
</svg>